<?xml version="1.0" encoding="utf-8"?>
<!-- Generator: Adobe Illustrator 17.1.0, SVG Export Plug-In . SVG Version: 6.00 Build 0)  -->
<!DOCTYPE svg PUBLIC "-//W3C//DTD SVG 1.1//EN" "http://www.w3.org/Graphics/SVG/1.1/DTD/svg11.dtd">
<svg version="1.1" id="Layer_1" xmlns="http://www.w3.org/2000/svg" xmlns:xlink="http://www.w3.org/1999/xlink" x="0px" y="0px"
	 viewBox="0 0 138 138" enable-background="new 0 0 138 138" xml:space="preserve">
<rect y="0" fill="none" width="138" height="138"/>
<g>
	<path d="M114.1,26.4L71,7.2c-1.2-0.6-2.7-0.6-3.9,0L23.9,26.4c-0.8,0.4-1.6,1-2.1,1.8c-0.5,0.8-0.8,1.7-0.8,2.6v41
		c0.1,11.8,5.1,23,14,30.9L65.8,130c0.9,0.8,2,1.2,3.2,1.2c1.2,0,2.3-0.4,3.2-1.2l30.8-27.4c8.8-7.9,13.9-19.1,14-30.9v-41
		c0-0.9-0.3-1.8-0.8-2.6C115.7,27.4,115,26.8,114.1,26.4L114.1,26.4z M107.4,71.8c0,9.2-3.9,17.9-10.7,24L69,120.2L41.4,95.7
		c-6.8-6.1-10.8-14.8-10.7-24V33.9L69,16.8l38.4,17.1L107.4,71.8z"/>
	<path d="M54.6,60.9c-1.2-1.2-3-1.7-4.6-1.2s-3,1.7-3.4,3.4c-0.4,1.7,0,3.4,1.2,4.6l12,12c0.9,0.9,2.1,1.4,3.4,1.4
		c1.3,0,2.5-0.5,3.4-1.4l24-24c1.2-1.3,1.7-3.1,1.2-4.8c-0.5-1.7-1.9-3-3.6-3.4c-1.7-0.4-3.5,0.1-4.7,1.4L62.8,69.5L54.6,60.9z"/>
</g>
<g>
</g>
<g>
</g>
<g>
</g>
<g>
</g>
<g>
</g>
</svg>
