<?xml version="1.0" encoding="utf-8"?>
<!-- Generator: Adobe Illustrator 17.1.0, SVG Export Plug-In . SVG Version: 6.00 Build 0)  -->
<!DOCTYPE svg PUBLIC "-//W3C//DTD SVG 1.1//EN" "http://www.w3.org/Graphics/SVG/1.1/DTD/svg11.dtd">
<svg version="1.1" id="Layer_1" xmlns="http://www.w3.org/2000/svg" xmlns:xlink="http://www.w3.org/1999/xlink" x="0px" y="0px"
	 viewBox="200 0 560 560" enable-background="new 200 0 560 560" xml:space="preserve">
<rect x="200" fill="none" width="560" height="560"/>
<path d="M347.6,297.2l49.1-40.8l0.6,0.9c4.1,1.2,8.9,2.4,13.3,3.3c4.4,0.6,9.5,0.9,14.5,0.9c24.2,0,46.1-9.5,62.1-25.1
	c7.7-7.7,13.9-16.8,18.3-26.9H332.8v-59.7h175.9c-4.1-13.9-11.8-26-21.6-35.8c-10.3-10.3-23.3-18-37.8-22.2H332.8V32h294.4v59.7
	h-84.8c12.1,16.8,20.7,36.7,24.5,57.9h60.3v59.7h-62.4c-6.2,25.7-19.8,48.8-38.1,66.8c-21,21-48.5,35.5-79.2,40.2l145.1,170.9
	L543.6,528L347.6,297.2L347.6,297.2z"/>
</svg>
