<?xml version="1.0" encoding="utf-8"?>
<!-- Generator: Adobe Illustrator 17.1.0, SVG Export Plug-In . SVG Version: 6.00 Build 0)  -->
<!DOCTYPE svg PUBLIC "-//W3C//DTD SVG 1.1//EN" "http://www.w3.org/Graphics/SVG/1.1/DTD/svg11.dtd">
<svg version="1.1" id="Layer_1" xmlns="http://www.w3.org/2000/svg" xmlns:xlink="http://www.w3.org/1999/xlink" x="0px" y="0px"
	 viewBox="200 0 560 560" enable-background="new 200 0 560 560" xml:space="preserve">
<rect x="200" y="2" fill="none" width="560" height="560"/>
<path d="M720.9,386.3l-0.1-1.1c0-15.6-7.6-29.9-21.1-39.3l-74.2-57.6c-17.2-13.6-42.2-11.6-57.7,3.8l-28,28l-8-4.9
	c-15.7-9.3-30.9-20.7-47.7-35.7c-12.8-12.7-24.6-28.5-36.7-48.6l-4.8-8.1l27.9-27.9c15.3-15.3,16.8-39.7,3.7-58.2L417,61.7
	c-9.6-13.8-24-21.5-39.6-21.5h-1c-1.3-0.2-2.7-0.2-4-0.2c-14.1,0-28.7,6.1-38.9,16.4l-63.9,63.8c-32.2,32.3-39.9,82-19.1,123.8
	c29.7,56.2,68.1,108.2,114,154.1c44.1,44.1,96,82.6,154.5,114.2c14.6,8,29.9,11.6,48.3,11.6c28,0,55.3-11.5,73.1-30.5l64.2-64.3
	C716,417.9,722.1,401.5,720.9,386.3z M679.4,396.8L612,464.1c-12.1,12.2-28.4,19-45.6,19c-10,0-19.9-2.4-28.9-6.8
	c-55.4-29.4-103-64.4-145.6-107.1C349.2,326.5,314.2,279,285,223.8c-12.6-25.1-7.8-55.1,11.9-74.8l67.4-67.4h6.6
	c6.4,0,11.2,3.2,12.9,8.6l57.4,75.3l-29.4,27.1c-12.8,12.8-16,33.3-7.4,49.3c11.5,23.1,27.9,45.2,48.7,66
	c20.9,20.8,42.9,37.1,65.7,48.5c16.6,9,35.3,5.4,48.3-7.5l30.5-30.5l73.7,57.5c4.8,2.1,8.1,6.9,8.1,12.5V396.8z"/>
</svg>
