<?xml version="1.0" encoding="utf-8"?>
<!-- Generator: Adobe Illustrator 17.1.0, SVG Export Plug-In . SVG Version: 6.00 Build 0)  -->
<!DOCTYPE svg PUBLIC "-//W3C//DTD SVG 1.1//EN" "http://www.w3.org/Graphics/SVG/1.1/DTD/svg11.dtd">
<svg version="1.1" id="Layer_1" xmlns="http://www.w3.org/2000/svg" xmlns:xlink="http://www.w3.org/1999/xlink" x="0px" y="0px"
	 viewBox="0 0 138 138" enable-background="new 0 0 138 138" xml:space="preserve">
<g>
	<path d="M910.2,6931.4c0,2.7,1.1,5.2,2.9,7.1c1.9,1.9,4.4,2.9,7.1,2.9h67c2.7,0,5.2-1.1,7.1-2.9c1.9-1.9,2.9-4.4,2.9-7.1v-50.3
		c0-0.8-0.3-1.5-0.8-2.1l-14.6-17.7c-1.9-2.3-4.7-3.6-7.7-3.6h-43.6c-3.4,0-6.5,1.7-8.4,4.5l-11.4,17.1h0c-0.4,0.5-0.6,1.2-0.6,1.8
		L910.2,6931.4z M990.6,6931.4c0,0.9-0.4,1.7-1,2.4c-0.6,0.6-1.5,1-2.4,1h-67c-1.8,0-3.3-1.5-3.3-3.3v-46.9h23.5v13.4h0
		c0,0.9,0.4,1.7,1,2.4c0.6,0.6,1.5,1,2.4,1h20.1c0.9,0,1.7-0.4,2.4-1c0.6-0.6,1-1.5,1-2.4v-13.4h23.5V6931.4z M947.1,6884.5h13.4
		v10.1h-13.4V6884.5z M976.8,6865.6l10.1,12.2h-20.1l-2.2-13.4h9.7v0C975.2,6864.4,976.1,6864.8,976.8,6865.6L976.8,6865.6z
		 M957.6,6864.4l2.2,13.4h-12.2l2.2-13.4H957.6z M927.8,6865.9L927.8,6865.9c0.6-0.9,1.7-1.5,2.8-1.5h12.6l-2.2,13.4h-21
		L927.8,6865.9z"/>
	<path d="M940.4,6921.4H927c-1.9,0-3.4,1.5-3.4,3.3c0,1.9,1.5,3.4,3.4,3.4h13.4h0c1.9,0,3.4-1.5,3.4-3.4
		C943.7,6922.9,942.2,6921.4,940.4,6921.4L940.4,6921.4z"/>
	<path d="M1010.7,6948.2c-3.9,0-7.6,1.3-10.6,3.8c-3,2.4-5,5.8-5.8,9.6h-24.1c-1-5.1-4.4-9.4-9-11.7c-4.7-2.3-10.1-2.3-14.8,0
		c-4.7,2.3-8,6.6-9,11.7h-24.1c-1.1-5.5-4.9-10-10.1-12.1c-5.2-2.1-11.1-1.5-15.7,1.6c-4.6,3.1-7.4,8.3-7.4,13.9
		c0,5.6,2.8,10.8,7.4,13.9c4.6,3.1,10.5,3.7,15.7,1.6c5.2-2.1,8.9-6.7,10.1-12.1h24.1c1,5.1,4.4,9.4,9,11.7c4.7,2.3,10.1,2.3,14.8,0
		c4.7-2.3,8-6.6,9-11.7h24.1c0.8,4.2,3.2,7.8,6.7,10.3c3.5,2.5,7.7,3.5,11.9,2.9c4.2-0.6,8-2.7,10.7-6c2.7-3.3,4-7.5,3.7-11.7
		c-0.3-4.2-2.2-8.2-5.3-11.1C1019.1,6949.8,1015,6948.2,1010.7,6948.2L1010.7,6948.2z M896.8,6975c-2.7,0-5.2-1.1-7.1-2.9
		c-1.9-1.9-2.9-4.4-2.9-7.1c0-2.7,1.1-5.2,2.9-7.1c1.9-1.9,4.4-2.9,7.1-2.9c2.7,0,5.2,1.1,7.1,2.9c1.9,1.9,2.9,4.4,2.9,7.1
		c0,2.7-1.1,5.2-2.9,7.1C902.1,6973.9,899.5,6975,896.8,6975z M953.8,6975c-2.7,0-5.2-1.1-7.1-2.9c-1.9-1.9-2.9-4.4-2.9-7.1
		c0-2.7,1.1-5.2,2.9-7.1c1.9-1.9,4.4-2.9,7.1-2.9s5.2,1.1,7.1,2.9c1.9,1.9,2.9,4.4,2.9,7.1c0,2.7-1.1,5.2-2.9,7.1
		C959,6973.9,956.5,6975,953.8,6975z M1010.7,6975c-2.7,0-5.2-1.1-7.1-2.9c-1.9-1.9-2.9-4.4-2.9-7.1c0-2.7,1.1-5.2,2.9-7.1
		c1.9-1.9,4.4-2.9,7.1-2.9c2.7,0,5.2,1.1,7.1,2.9c1.9,1.9,2.9,4.4,2.9,7.1c0,2.7-1.1,5.2-2.9,7.1
		C1016,6973.9,1013.4,6975,1010.7,6975z"/>
	<path d="M957.1,6964.9c0,1.9-1.5,3.4-3.4,3.4s-3.4-1.5-3.4-3.4c0-1.8,1.5-3.3,3.4-3.3S957.1,6963.1,957.1,6964.9"/>
</g>
<rect x="0.1" y="0.2" fill="none" width="138" height="138"/>
<g>
	<g>
		<path d="M72.3,67.6c0-3.5-2.9-6.3-6.5-6.3h-6.9c6.9-3.7,11.9-12.1,11.9-21.7c0-9.8-11.3-28.5-12.5-30.6c-0.4-0.6-1-1.2-1.7-1.2
			H46.3c-0.6,0-1.3,0.4-1.5,1c-0.2,0.2-12.7,21-12.7,30.8c0,9.8,5,18.3,11.9,21.7h-7.3c-3.7,0-6.5,2.9-6.5,6.3c0,2.7,1.5,4.8,3.8,6
			c-9.6,14.6-13.3,33.1-10,51.2c0.8,4.2,5,6.7,8.8,5.8c3.7-1,6.2-4.8,5.4-8.5C35,104.7,40,86.9,51.1,75.1
			c10.2,12.3,14.2,30,10.4,46.7c-0.8,3.5,1.3,7.3,5,8.5c3.8,1.3,8.1-1,9-5c4-17.7,1.2-36.7-7.7-51.5C70.4,72.8,72.3,70.5,72.3,67.6
			L72.3,67.6z M51.1,33.6c3.1,0,5.8,2.9,5.8,6.5c0,3.7-2.5,6.5-5.8,6.5c-3.1,0-5.8-2.9-5.8-6.5C45.4,36.5,48.1,33.6,51.1,33.6z
			 M35.8,39.6c0-7.1,8.5-22.7,11.5-27.9h2.1v18.3c-4.4,1-7.9,5-7.9,10.2c0,5.8,4.2,10.4,9.6,10.4s9.6-4.6,9.6-10.4c0-5-3.3-9-7.5-10
			V11.7h2.1c3.1,5.2,11.5,20.4,11.5,27.9c0,11-6.9,19.8-15.6,19.8C42.7,59.4,35.8,50.3,35.8,39.6L35.8,39.6z M36.5,65.1h29.2
			c1.5,0,2.7,1.2,2.7,2.5c0,1.3-1.2,2.5-2.7,2.5l-29.2,0c-1.5,0-2.7-1.2-2.7-2.5C33.8,66.3,35,65.1,36.5,65.1L36.5,65.1z
			 M34.4,122.6c0.2,1.5-0.6,3.5-2.7,4c-1.7,0.6-3.7-0.8-4-2.7c-3.3-17.7,0.6-36,10.6-49.8h8.5C36,86.9,31.1,104.9,34.4,122.6
			L34.4,122.6z M71.9,124.6c-0.4,1.7-2.3,2.9-4,2.3c-1.9-0.8-2.9-2.7-2.5-4c3.8-17.1,0-35.4-10-48.5h8.3
			C72.9,88.4,76,107.2,71.9,124.6L71.9,124.6z"/>
		<path d="M31.2,131.7c-4,0-7.4-2.9-8.2-6.8c-3.2-17.8,0.3-36.3,9.6-51c-2.2-1.5-3.4-3.7-3.4-6.3c0-4.1,3.4-7.3,7.5-7.3h3.8
			c-5.8-4.4-9.5-12.3-9.5-20.7c0-9.5,11.1-28.6,12.8-31.2c0.4-1,1.5-1.5,2.4-1.5h10.2c0.7,0,1.7,0.3,2.6,1.6
			c0.2,0.3,0.4,0.6,0.6,1.1c8,13.9,12,24,12,30c0,8.3-3.7,16.2-9.6,20.7h3.6c4.2,0,7.5,3.3,7.5,7.3l0,0.1c0,2.7-1.6,5.1-4,6.5
			c8.5,14.8,11.2,33.9,7.3,51.3c-0.9,3.6-4.1,6.2-7.8,6.2l0,0c-0.9,0-1.8-0.1-2.6-0.4c-4-1.3-6.5-5.6-5.6-9.6
			c3.6-15.8,0-32.9-9.5-45c-10.4,11.5-15,28.8-11.8,45.2c0.9,4.1-1.9,8.5-6.1,9.6C32.5,131.6,31.9,131.7,31.2,131.7z M36.7,62.3
			c-3.1,0-5.5,2.4-5.5,5.3c0,2.2,1.2,4,3.3,5.1l1,0.5l-0.6,0.9c-9.5,14.4-13,32.8-9.9,50.4c0.5,3,3.1,5.2,6.2,5.2
			c0.5,0,1-0.1,1.4-0.2c3.2-0.8,5.3-4.2,4.6-7.3C34,104.8,39,86.4,50.4,74.4l0.8-0.8l0.7,0.9c10.4,12.6,14.5,30.8,10.6,47.6
			c-0.7,3,1.3,6.3,4.3,7.3c0.7,0.2,1.3,0.3,2,0.3c2.8,0,5.2-1.9,5.8-4.6c3.9-17.3,1.1-36.3-7.6-50.8l-0.6-1l1.1-0.4
			c2.3-0.9,3.8-2.9,3.8-5.2v-0.1c0-2.9-2.5-5.3-5.5-5.3h-11l3.6-1.9c6.8-3.6,11.4-12,11.4-20.8c0-5.7-4-15.5-11.8-29
			c-0.3-0.5-0.5-0.9-0.6-1.1c-0.1-0.2-0.5-0.6-0.9-0.6H46.3c-0.2,0-0.5,0.2-0.6,0.3l-0.1,0.2l-0.1,0.1c-1.3,1.9-12.5,21.1-12.5,30.1
			c0,9.1,4.6,17.4,11.4,20.8l3.8,1.9H36.7z M68.8,128c-0.4,0-0.8-0.1-1.2-0.2c-2.3-0.9-3.7-3.3-3.1-5.3c3.8-16.8,0.1-34.6-9.8-47.6
			l-1.2-1.6h10.8l0.3,0.5c9.4,14.3,12.5,33.3,8.4,51C72.5,126.6,70.7,128,68.8,128z M57.4,75.4c9.4,13.3,12.8,31,9,47.7
			c-0.2,0.8,0.4,2.3,1.9,2.9c0.1,0,0.3,0.1,0.6,0.1c1,0,1.9-0.7,2.1-1.7c4-16.9,1-35.2-7.8-49H57.4z M30.9,127.8
			c-2,0-3.8-1.6-4.2-3.6c-3.3-18.1,0.6-36.5,10.7-50.6l0.3-0.4h11.1l-1.4,1.6c-10.7,12.7-15.3,30.5-12.1,47.6c0.3,2-0.7,4.5-3.4,5.2
			C31.7,127.7,31.3,127.8,30.9,127.8z M38.8,75.2c-9.6,13.6-13.3,31.3-10.1,48.6c0.3,1.3,1.6,2.3,2.7,1.9c1.6-0.4,2.2-1.8,2-3
			c-3.1-17,1-34.6,11.2-47.6H38.8z M65.8,71.1l-29.2,0c-2,0-3.7-1.6-3.7-3.5s1.7-3.5,3.7-3.5h29.2c2,0,3.7,1.6,3.7,3.5
			C69.5,69.6,67.8,71.1,65.8,71.1z M36.5,66.1c-0.9,0-1.7,0.7-1.7,1.5c0,0.8,0.8,1.5,1.7,1.5l29.2,0c0.9,0,1.7-0.7,1.7-1.5
			s-0.8-1.5-1.7-1.5H36.5z M51.3,60.4c-9.1,0-16.6-9.3-16.6-20.8C34.8,31,46,12,46.4,11.2l0.3-0.5h3.7v20.1l-0.8,0.2
			c-4.2,0.9-7.1,4.7-7.1,9.2c0,5.3,3.8,9.4,8.6,9.4s8.6-4.1,8.6-9.4c0-4.3-2.8-8.1-6.7-9l-0.8-0.2V10.7h3.7l0.3,0.5
			c2,3.3,11.7,20.1,11.7,28.4C67.9,51,60.5,60.4,51.3,60.4z M47.9,12.7c-4,6.8-11.1,20.6-11.1,26.9c0,10.4,6.5,18.8,14.6,18.8
			c8,0,14.6-8.4,14.6-18.8c0-5.9-5.9-18-11.1-26.9h-0.5v16.7c4.4,1.4,7.5,5.8,7.5,10.8c0,6.4-4.7,11.4-10.6,11.4s-10.6-5-10.6-11.4
			c0-5.2,3.2-9.6,7.9-11V12.7H47.9z M51.1,47.7c-3.7,0-6.8-3.4-6.8-7.5s3-7.5,6.8-7.5s6.8,3.4,6.8,7.5
			C57.9,44.4,54.9,47.7,51.1,47.7z M51.1,34.6c-2.6,0-4.8,2.5-4.8,5.5s2.2,5.5,4.8,5.5c2.7,0,4.8-2.4,4.8-5.5
			C55.9,37.1,53.7,34.6,51.1,34.6z"/>
	</g>
	<g>
		<path d="M115.2,80.7c-0.4-2.7-2.9-4.6-5.6-4.6h-0.2V34.9l2.3-11.3v-1L107.5,9c-0.2-0.8-1-1.3-1.9-1.3h-5.2c-0.8,0-1.5,0.6-1.9,1.3
			l-4.2,13.7c0,0.4-0.2,0.6,0,1l2.3,11.3v41.2h-0.2c-2.7,0-5.2,1.9-5.6,4.6c-0.4,2.5,1.2,5,3.3,5.8v35.2c0,5,4,8.8,8.8,8.8
			c5,0,8.8-4,8.8-8.8l0-35C114.2,85.7,115.6,83.4,115.2,80.7L115.2,80.7z M100.6,34.4l-2.3-11.2l3.7-11.7h2.3l3.7,11.9l-2.3,11.2
			v0.4v41.3h-5l0-41.5L100.6,34.4L100.6,34.4z M96.3,80.1H110c1,0,1.5,0.8,1.5,1.5c0,1-0.8,1.5-1.5,1.5H96.3c-1,0-1.5-0.8-1.5-1.5
			C94.8,80.7,95.4,80.1,96.3,80.1L96.3,80.1z M108.3,121.9c0,2.9-2.3,5-5,5c-2.9,0-5-2.3-5-5l0-34.8h10.2v34.8H108.3z"/>
		<path d="M102.9,131.5c-5.4,0-9.8-4.4-9.8-9.8V87.1c-2.3-1.2-3.7-3.9-3.3-6.6c0.4-2.9,2.8-5.1,5.8-5.4V35l-2.3-11.1
			c-0.2-0.5-0.1-0.9-0.1-1.1c0-0.1,0-0.1,0-0.1l0-0.3l4.3-13.8c0.6-1.1,1.7-1.9,2.8-1.9h5.2c1.4,0,2.6,0.9,2.9,2.1l4.3,13.9l0,1.2
			L110.4,35v40.1c2.9,0.3,5.3,2.6,5.8,5.4l0,0c0.4,2.9-0.9,5.5-3.5,6.8l0,34.4C112.7,127.1,108.3,131.5,102.9,131.5z M96.3,77.1
			c-2.3,0-4.3,1.6-4.6,3.8c-0.3,2,0.9,4.1,2.6,4.7l0.7,0.2v35.9c0,4.3,3.5,7.8,7.8,7.8s7.8-3.5,7.8-7.8l0-35.7l0.6-0.2
			c2.1-0.8,3.1-2.7,2.8-4.9l0,0c-0.3-2.1-2.3-3.8-4.6-3.8h-1.2l0-42.4l2.3-11.2v-0.7l-4.2-13.5c-0.1-0.3-0.4-0.6-1-0.6h-5.2
			c-0.3,0-0.8,0.3-1,0.7l-4.2,13.4c0,0.2,0,0.3-0.1,0.4c0,0,0,0,0,0l0.1,0.2l2.3,11.5v42.2H96.3z M103.3,127.9c-3.4,0-6-2.6-6-6
			l0-35.8h12.2v36.8h-0.3C108.7,125.7,106.3,127.9,103.3,127.9z M99.3,88.1l0,33.8c0,2.2,1.8,4,4,4s4-1.8,4-4v-1h0.2V88.1H99.3z
			 M110,84.2H96.3c-1.6,0-2.5-1.3-2.5-2.5c0-1.5,1-2.5,2.5-2.5H110c1.6,0,2.5,1.3,2.5,2.5C112.5,83.3,111.2,84.2,110,84.2z
			 M96.3,81.1c-0.4,0-0.5,0.1-0.5,0.5c0,0.2,0.1,0.5,0.5,0.5H110c0.2,0,0.5-0.1,0.5-0.5c0-0.2-0.1-0.5-0.5-0.5H96.3z M106.6,77.3h-7
			l0-42.8l-2.3-11.3l3.9-12.7h3.8l3.9,12.9l-2.3,11.3V77.3z M101.6,75.3h3l0-40.9l2.3-10.9l-3.4-11h-0.8l-3.4,10.8l2.3,11.1
			L101.6,75.3z"/>
	</g>
</g>
<g>
</g>
<g>
</g>
<g>
</g>
<g>
</g>
<g>
</g>
</svg>
