<?xml version="1.0" encoding="utf-8"?>
<!-- Generator: Adobe Illustrator 17.1.0, SVG Export Plug-In . SVG Version: 6.00 Build 0)  -->
<!DOCTYPE svg PUBLIC "-//W3C//DTD SVG 1.1//EN" "http://www.w3.org/Graphics/SVG/1.1/DTD/svg11.dtd">
<svg version="1.1" id="Layer_1" xmlns="http://www.w3.org/2000/svg" xmlns:xlink="http://www.w3.org/1999/xlink" x="0px" y="0px"
	 viewBox="200 0 560 560" enable-background="new 200 0 560 560" xml:space="preserve">
<rect x="200" fill="none" width="560" height="560"/>
<g>
	<path d="M479.3,32.1c92.5,0,157.1,52.4,157.1,144.2c0,91.8-66,136.7-156.4,136.7l-2.7,52.4h-83.7l-3.4-115.6h30.6
		c70.7,0,123.8-12.9,123.1-74.1c0-39.4-24.5-63.9-64.6-63.9c-41.5,0-66,23.8-66,63.9h-89.8C322.2,93.3,380,32.1,479.3,32.1z
		 M435.1,527.9c-34.7,0-59.2-24.5-59.2-55.8s24.5-55.8,59.2-55.8c33.3,0,57.8,24.5,57.8,55.8S468.5,527.9,435.1,527.9z"/>
</g>
</svg>
