<?xml version="1.0" encoding="utf-8"?>
<!-- Generator: Adobe Illustrator 17.1.0, SVG Export Plug-In . SVG Version: 6.00 Build 0)  -->
<!DOCTYPE svg PUBLIC "-//W3C//DTD SVG 1.1//EN" "http://www.w3.org/Graphics/SVG/1.1/DTD/svg11.dtd">
<svg version="1.1" id="Layer_1" xmlns="http://www.w3.org/2000/svg" xmlns:xlink="http://www.w3.org/1999/xlink" x="0px" y="0px"
	 viewBox="0 0 138 138" enable-background="new 0 0 138 138" xml:space="preserve">
<rect y="0" fill="none" width="138" height="138"/>
<g>
	<path d="M24.8,68.8c-0.1,2.6,2,4.8,4.6,4.9h0.2c2.5,0,4.6-2,4.7-4.6c0.6-20.4,17.1-36.3,37.5-36.3h30.9l-7.9,7.9
		c-1.8,1.8-1.8,4.8,0,6.7c0.9,0.9,2.1,1.4,3.3,1.4c1.2,0,2.4-0.5,3.3-1.4l13.1-13.1c0,0,0,0,0.1-0.1l2.8-2.8c1.8-1.8,1.8-4.8,0-6.7
		L101.5,8.9c-1.8-1.8-4.8-1.8-6.7,0c-1.8,1.8-1.8,4.8,0,6.7l7.9,7.9H71.8C46.3,23.4,25.6,43.4,24.8,68.8L24.8,68.8z"/>
	<path d="M115.9,69.2c0.1-2.6-2-4.8-4.6-4.9c-2.6-0.2-4.8,2-4.9,4.6c-0.6,20.4-17.1,36.3-37.5,36.3H35.3l7.9-7.9
		c1.8-1.8,1.8-4.8,0-6.7c-1.8-1.8-4.8-1.8-6.7,0l-15.9,15.9c-1.8,1.8-1.8,4.8,0,6.7l15.9,15.9c0.9,0.9,2.1,1.4,3.3,1.4
		c1.2,0,2.4-0.5,3.3-1.4c1.8-1.8,1.8-4.8,0-6.7l-7.9-7.9H69C94.5,114.6,115.1,94.6,115.9,69.2L115.9,69.2z"/>
</g>
<g>
</g>
<g>
</g>
<g>
</g>
<g>
</g>
<g>
</g>
</svg>
