<?xml version="1.0" encoding="utf-8"?>
<!-- Generator: Adobe Illustrator 17.1.0, SVG Export Plug-In . SVG Version: 6.00 Build 0)  -->
<!DOCTYPE svg PUBLIC "-//W3C//DTD SVG 1.1//EN" "http://www.w3.org/Graphics/SVG/1.1/DTD/svg11.dtd">
<svg version="1.1" id="Layer_1" xmlns="http://www.w3.org/2000/svg" xmlns:xlink="http://www.w3.org/1999/xlink" x="0px" y="0px"
	 viewBox="0 0 138 138" enable-background="new 0 0 138 138" xml:space="preserve">
<rect y="0" fill="none" width="138" height="138"/>
<g>
	<path d="M23.2,127.1c0,1.4,0.8,2.7,2.2,3.2c0.4,0.2,0.9,0.3,1.3,0.3c0.9,0,1.8-0.4,2.5-1L40.8,118l11.6,11.6c1.4,1.4,3.6,1.4,5,0
		L69,118l11.6,11.6c1.4,1.4,3.6,1.4,5,0L97.2,118l11.6,11.6c1,1,2.5,1.3,3.8,0.8c1.3-0.5,2.2-1.8,2.2-3.2V10.9
		c0-1.9-1.6-3.5-3.5-3.5l-84.5,0c-1.9,0-3.5,1.6-3.5,3.5L23.2,127.1z M30.3,14.4h77.5v7H30.3L30.3,14.4z M30.3,28.5h77.5v90.1
		l-8.1-8.1c-1.3-1.3-3.7-1.3-5,0l-11.6,11.6l-11.6-11.6c-0.7-0.7-1.5-1.1-2.5-1.1s-1.8,0.4-2.5,1l-11.6,11.6l-11.6-11.6
		c-1.3-1.3-3.7-1.3-5,0l-8.1,8.1L30.3,28.5z"/>
	<path d="M55.9,68.8l4.8-4l0.1,0.1c0.4,0.1,0.9,0.2,1.3,0.3c0.4,0.1,0.9,0.1,1.4,0.1c2.4,0,4.6-0.9,6.1-2.5c0.8-0.8,1.4-1.7,1.8-2.7
		h-17v-5.9h17.4c-0.4-1.4-1.2-2.6-2.1-3.5c-1-1-2.3-1.8-3.7-2.2H54.5v-5.9h29.1v5.9h-8.4c1.2,1.7,2,3.6,2.4,5.7h6v5.9h-6.2
		c-0.6,2.5-2,4.8-3.8,6.6c-2.1,2.1-4.8,3.5-7.8,4l14.3,16.9l-4.8,4L55.9,68.8L55.9,68.8z"/>
</g>
<g>
</g>
<g>
</g>
<g>
</g>
<g>
</g>
<g>
</g>
</svg>
