<?xml version="1.0" encoding="utf-8"?>
<!-- Generator: Adobe Illustrator 17.1.0, SVG Export Plug-In . SVG Version: 6.00 Build 0)  -->
<!DOCTYPE svg PUBLIC "-//W3C//DTD SVG 1.1//EN" "http://www.w3.org/Graphics/SVG/1.1/DTD/svg11.dtd">
<svg version="1.1" id="Layer_1" xmlns="http://www.w3.org/2000/svg" xmlns:xlink="http://www.w3.org/1999/xlink" x="0px" y="0px"
	 viewBox="200 0 560 560" enable-background="new 200 0 560 560" xml:space="preserve">
<rect x="200" fill="none" width="560" height="560"/>
<g>
	<path d="M302.2,178.5c17.4,0,32.2-11.1,38-26.4h48l19,69.6h145.6l19-70.2h48c5.8,15.3,20.6,26.4,38,26.4
		c22.7,0,40.6-18.5,40.6-40.6s-18.5-40.6-40.6-40.6c-17.4,0-32.2,11.1-38,26.4l-69.6,0l-19,70.2h-36.9v-85.5
		c15.3-5.8,26.4-20.6,26.4-38c0-22.7-18.5-40.6-40.6-40.6c-22.7,0-40.6,18.5-40.6,40.6c0,17.4,11.1,32.2,26.4,38v86h-36.9l-19-70.2
		l-69.1,0c-5.8-15.3-20.6-26.4-38-26.4c-22.7,0-40.6,18.5-40.6,40.6S280.1,178.5,302.2,178.5L302.2,178.5z"/>
	<path d="M657.8,381c-17.4,0-32.2,11.1-38,26.4h-48l-19-69.6H407.2l-19,70.2h-48c-5.8-15.3-20.6-26.4-38-26.4
		c-22.7,0-40.6,18.5-40.6,40.6c0,22.7,18.5,40.6,40.6,40.6c17.4,0,32.2-11.1,38-26.4h69.6l19-70.2h36.9v86
		c-15.3,5.8-26.4,20.6-26.4,38c0,22.7,18.5,40.6,40.6,40.6c22.7,0,40.6-18.5,40.6-40.6c0-17.4-11.1-32.2-26.4-38v-86.5h36.9l19,70.2
		h69.6c5.8,15.3,20.6,26.4,38,26.4c22.7,0,40.6-18.5,40.6-40.6C698.4,398.9,679.9,381,657.8,381L657.8,381z"/>
	<path d="M657.8,239.1c-17.4,0-32.2,11.1-38,26.4H340.7c-5.8-15.3-20.6-26.4-38-26.4c-22.7,0-40.6,18.5-40.6,40.6
		c0,22.2,18.5,40.6,40.6,40.6c17.4,0,32.2-11.1,38-26.4h279.1c5.8,15.3,20.6,26.4,38,26.4c22.7,0,40.6-18.5,40.6-40.6
		C698.4,257.6,679.9,239.1,657.8,239.1z"/>
</g>
</svg>
