<?xml version="1.0" encoding="utf-8"?>
<!-- Generator: Adobe Illustrator 17.1.0, SVG Export Plug-In . SVG Version: 6.00 Build 0)  -->
<!DOCTYPE svg PUBLIC "-//W3C//DTD SVG 1.1//EN" "http://www.w3.org/Graphics/SVG/1.1/DTD/svg11.dtd">
<svg version="1.1" id="Layer_1" xmlns="http://www.w3.org/2000/svg" xmlns:xlink="http://www.w3.org/1999/xlink" x="0px" y="0px"
	 viewBox="200 0 560 560" enable-background="new 200 0 560 560" xml:space="preserve">
<rect x="202" fill="none" width="560" height="560"/>
<g>
	<path d="M533.9,169.1c-13.8-13.8-32.4-21.5-51.9-21.5c-19.5,0-38.1,7.7-51.9,21.5c-13.8,13.8-21.5,32.4-21.5,51.9
		c0,19.5,7.7,38.1,21.5,51.9c13.8,13.8,32.4,21.5,51.9,21.5c19.5,0,38.1-7.7,51.9-21.5c13.8-13.8,21.5-32.4,21.5-51.9
		C555.4,201.5,547.6,182.9,533.9,169.1z M512.4,251.4c-8.1,8.1-19,12.6-30.4,12.6c-11.4,0-22.3-4.5-30.4-12.6
		c-8.1-8.1-12.6-19-12.6-30.4c0-11.4,4.5-22.3,12.6-30.4c8.1-8.1,19-12.6,30.4-12.6c11.4,0,22.3,4.5,30.4,12.6
		c8.1,8.1,12.6,19,12.6,30.4C524.9,232.4,520.4,243.3,512.4,251.4z"/>
	<path d="M533.9,169.1c-13.8-13.8-32.4-21.5-51.9-21.5c-19.5,0-38.1,7.7-51.9,21.5c-13.8,13.8-21.5,32.4-21.5,51.9
		c0,19.5,7.7,38.1,21.5,51.9c13.8,13.8,32.4,21.5,51.9,21.5c19.5,0,38.1-7.7,51.9-21.5c13.8-13.8,21.5-32.4,21.5-51.9
		C555.4,201.5,547.6,182.9,533.9,169.1z M512.4,251.4c-8.1,8.1-19,12.6-30.4,12.6c-11.4,0-22.3-4.5-30.4-12.6
		c-8.1-8.1-12.6-19-12.6-30.4c0-11.4,4.5-22.3,12.6-30.4c8.1-8.1,19-12.6,30.4-12.6c11.4,0,22.3,4.5,30.4,12.6
		c8.1,8.1,12.6,19,12.6,30.4C524.9,232.4,520.4,243.3,512.4,251.4z"/>
	<path d="M533.9,169.1c-13.8-13.8-32.4-21.5-51.9-21.5c-19.5,0-38.1,7.7-51.9,21.5c-13.8,13.8-21.5,32.4-21.5,51.9
		c0,19.5,7.7,38.1,21.5,51.9c13.8,13.8,32.4,21.5,51.9,21.5c19.5,0,38.1-7.7,51.9-21.5c13.8-13.8,21.5-32.4,21.5-51.9
		C555.4,201.5,547.6,182.9,533.9,169.1z M512.4,251.4c-8.1,8.1-19,12.6-30.4,12.6c-11.4,0-22.3-4.5-30.4-12.6
		c-8.1-8.1-12.6-19-12.6-30.4c0-11.4,4.5-22.3,12.6-30.4c8.1-8.1,19-12.6,30.4-12.6c11.4,0,22.3,4.5,30.4,12.6
		c8.1,8.1,12.6,19,12.6,30.4C524.9,232.4,520.4,243.3,512.4,251.4z"/>
	<path d="M654.6,151.3c-8.8-22.5-22.3-42.8-39.4-59.8C597.7,74,577,60.1,554.1,50.7c-22.9-9.4-47.4-14.3-72.1-14.2l0,0
		c-24.7-0.1-49.2,4.7-72.1,14.1C387,60.1,366.3,74,348.8,91.5c-17.2,17-30.6,37.3-39.4,59.8c-8.8,22.5-12.9,46.5-11.9,70.6
		c2.4,48.9,19.8,95.8,49.9,134.4l122.4,161.2c2.9,3.8,7.3,6,12.1,6c4.8,0,9.2-2.2,12.1-6l122.4-161.2
		c30.1-38.6,47.6-85.5,49.9-134.4C667.5,197.8,663.4,173.7,654.6,151.3z M592.3,337.9L482,483.1L371.7,337.9
		c-47-61.9-67.5-158.7-1.4-224.9C400,83.4,440.1,66.8,482,66.8c41.9,0,82,16.6,111.7,46.2C659.8,179.2,639.4,276,592.3,337.9z"/>
</g>
</svg>
