<?xml version="1.0" encoding="utf-8"?>
<!-- Generator: Adobe Illustrator 17.1.0, SVG Export Plug-In . SVG Version: 6.00 Build 0)  -->
<!DOCTYPE svg PUBLIC "-//W3C//DTD SVG 1.1//EN" "http://www.w3.org/Graphics/SVG/1.1/DTD/svg11.dtd">
<svg version="1.1" id="Layer_1" xmlns="http://www.w3.org/2000/svg" xmlns:xlink="http://www.w3.org/1999/xlink" x="0px" y="0px"
	 viewBox="0 0 138 138" enable-background="new 0 0 138 138" xml:space="preserve">
<g>
	<path d="M910.2,6931.4c0,2.7,1.1,5.2,2.9,7.1c1.9,1.9,4.4,2.9,7.1,2.9h67c2.7,0,5.2-1.1,7.1-2.9c1.9-1.9,2.9-4.4,2.9-7.1v-50.3
		c0-0.8-0.3-1.5-0.8-2.1l-14.6-17.7c-1.9-2.3-4.7-3.6-7.7-3.6h-43.6c-3.4,0-6.5,1.7-8.4,4.5l-11.4,17.1h0c-0.4,0.5-0.6,1.2-0.6,1.8
		L910.2,6931.4z M990.6,6931.4c0,0.9-0.4,1.7-1,2.4c-0.6,0.6-1.5,1-2.4,1h-67c-1.8,0-3.3-1.5-3.3-3.3v-46.9h23.5v13.4h0
		c0,0.9,0.4,1.7,1,2.4c0.6,0.6,1.5,1,2.4,1h20.1c0.9,0,1.7-0.4,2.4-1c0.6-0.6,1-1.5,1-2.4v-13.4h23.5V6931.4z M947.1,6884.5h13.4
		v10.1h-13.4V6884.5z M976.8,6865.6l10.1,12.2h-20.1l-2.2-13.4h9.7v0C975.2,6864.4,976.1,6864.8,976.8,6865.6L976.8,6865.6z
		 M957.6,6864.4l2.2,13.4h-12.2l2.2-13.4H957.6z M927.8,6865.9L927.8,6865.9c0.6-0.9,1.7-1.5,2.8-1.5h12.6l-2.2,13.4h-21
		L927.8,6865.9z"/>
	<path d="M940.4,6921.4H927c-1.9,0-3.4,1.5-3.4,3.3c0,1.9,1.5,3.4,3.4,3.4h13.4h0c1.9,0,3.4-1.5,3.4-3.4
		C943.7,6922.9,942.2,6921.4,940.4,6921.4L940.4,6921.4z"/>
	<path d="M1010.7,6948.2c-3.9,0-7.6,1.3-10.6,3.8c-3,2.4-5,5.8-5.8,9.6h-24.1c-1-5.1-4.4-9.4-9-11.7c-4.7-2.3-10.1-2.3-14.8,0
		c-4.7,2.3-8,6.6-9,11.7h-24.1c-1.1-5.5-4.9-10-10.1-12.1c-5.2-2.1-11.1-1.5-15.7,1.6c-4.6,3.1-7.4,8.3-7.4,13.9
		c0,5.6,2.8,10.8,7.4,13.9c4.6,3.1,10.5,3.7,15.7,1.6c5.2-2.1,8.9-6.7,10.1-12.1h24.1c1,5.1,4.4,9.4,9,11.7c4.7,2.3,10.1,2.3,14.8,0
		c4.7-2.3,8-6.6,9-11.7h24.1c0.8,4.2,3.2,7.8,6.7,10.3c3.5,2.5,7.7,3.5,11.9,2.9c4.2-0.6,8-2.7,10.7-6c2.7-3.3,4-7.5,3.7-11.7
		c-0.3-4.2-2.2-8.2-5.3-11.1C1019.1,6949.8,1015,6948.2,1010.7,6948.2L1010.7,6948.2z M896.8,6975c-2.7,0-5.2-1.1-7.1-2.9
		c-1.9-1.9-2.9-4.4-2.9-7.1c0-2.7,1.1-5.2,2.9-7.1c1.9-1.9,4.4-2.9,7.1-2.9c2.7,0,5.2,1.1,7.1,2.9c1.9,1.9,2.9,4.4,2.9,7.1
		c0,2.7-1.1,5.2-2.9,7.1C902.1,6973.9,899.5,6975,896.8,6975z M953.8,6975c-2.7,0-5.2-1.1-7.1-2.9c-1.9-1.9-2.9-4.4-2.9-7.1
		c0-2.7,1.1-5.2,2.9-7.1c1.9-1.9,4.4-2.9,7.1-2.9s5.2,1.1,7.1,2.9c1.9,1.9,2.9,4.4,2.9,7.1c0,2.7-1.1,5.2-2.9,7.1
		C959,6973.9,956.5,6975,953.8,6975z M1010.7,6975c-2.7,0-5.2-1.1-7.1-2.9c-1.9-1.9-2.9-4.4-2.9-7.1c0-2.7,1.1-5.2,2.9-7.1
		c1.9-1.9,4.4-2.9,7.1-2.9c2.7,0,5.2,1.1,7.1,2.9c1.9,1.9,2.9,4.4,2.9,7.1c0,2.7-1.1,5.2-2.9,7.1
		C1016,6973.9,1013.4,6975,1010.7,6975z"/>
	<path d="M957.1,6964.9c0,1.9-1.5,3.4-3.4,3.4s-3.4-1.5-3.4-3.4c0-1.8,1.5-3.3,3.4-3.3S957.1,6963.1,957.1,6964.9"/>
</g>
<rect y="0" fill="none" width="138" height="138"/>
<g>
	<path d="M25.7,80.7c0,2.7,1.1,5.2,2.9,7.1c1.9,1.9,4.4,2.9,7.1,2.9h66.7c2.7,0,5.2-1.1,7.1-2.9c1.9-1.9,2.9-4.4,2.9-7.1v-50
		c0-0.8-0.3-1.5-0.8-2.1L97,10.9c-1.9-2.3-4.7-3.6-7.7-3.6H46c-3.4,0-6.5,1.7-8.3,4.5l-11.3,17h0c-0.4,0.5-0.6,1.2-0.6,1.8
		L25.7,80.7z M105.7,80.7c0,0.9-0.4,1.7-1,2.4c-0.6,0.6-1.5,1-2.4,1H35.7c-1.8,0-3.3-1.5-3.3-3.3V34h23.3v13.3h0
		c0,0.9,0.4,1.7,1,2.4s1.5,1,2.4,1h20c0.9,0,1.7-0.4,2.4-1s1-1.5,1-2.4V34h23.3V80.7z M62.3,34h13.3v10H62.3V34z M91.9,15.2l10,12.1
		h-20L79.6,14h9.7v0C90.3,14,91.2,14.4,91.9,15.2L91.9,15.2z M72.8,14l2.2,13.3H62.9L65.2,14L72.8,14z M43.1,15.5L43.1,15.5
		c0.6-0.9,1.7-1.5,2.8-1.5h12.5l-2.2,13.3H35.2L43.1,15.5z"/>
	<path d="M55.7,70.7H42.3c-1.8,0-3.3,1.5-3.3,3.3c0,1.8,1.5,3.3,3.3,3.3h13.3h0c1.8,0,3.3-1.5,3.3-3.3C59,72.2,57.5,70.7,55.7,70.7
		L55.7,70.7z"/>
	<path d="M114.9,103.7c-3.1,0-6.1,1.1-8.5,3c-2.4,2-4.1,4.7-4.7,7.8H82.2c-0.8-4.1-3.5-7.6-7.3-9.4c-3.8-1.8-8.2-1.8-11.9,0
		c-3.8,1.8-6.4,5.3-7.3,9.4H36.3c-0.9-4.4-3.9-8.1-8.1-9.8c-4.2-1.7-8.9-1.2-12.6,1.3c-3.7,2.5-6,6.7-6,11.2c0,4.5,2.2,8.7,6,11.2
		c3.7,2.5,8.5,3,12.6,1.3c4.2-1.7,7.2-5.4,8.1-9.8h19.4c0.8,4.1,3.5,7.6,7.3,9.4c3.8,1.8,8.2,1.8,11.9,0c3.8-1.8,6.4-5.3,7.3-9.4
		h19.4c0.7,3.4,2.6,6.3,5.4,8.3c2.8,2,6.2,2.8,9.6,2.4c3.4-0.5,6.5-2.2,8.7-4.8c2.2-2.7,3.2-6,3-9.4c-0.2-3.4-1.7-6.6-4.2-9
		C121.6,105,118.3,103.7,114.9,103.7L114.9,103.7z M23.1,125.3c-2.1,0-4.2-0.9-5.7-2.4c-1.5-1.5-2.4-3.6-2.4-5.7
		c0-2.1,0.9-4.2,2.4-5.7c1.5-1.5,3.6-2.4,5.7-2.4c2.1,0,4.2,0.9,5.7,2.4c1.5,1.5,2.4,3.6,2.4,5.7c0,2.1-0.9,4.2-2.4,5.7
		C27.3,124.4,25.2,125.3,23.1,125.3z M69,125.3c-2.1,0-4.2-0.9-5.7-2.4c-1.5-1.5-2.4-3.6-2.4-5.7c0-2.1,0.9-4.2,2.4-5.7
		c1.5-1.5,3.6-2.4,5.7-2.4s4.2,0.9,5.7,2.4c1.5,1.5,2.4,3.6,2.4,5.7c0,2.1-0.9,4.2-2.4,5.7C73.2,124.4,71.1,125.3,69,125.3z
		 M114.9,125.3c-2.1,0-4.2-0.9-5.7-2.4c-1.5-1.5-2.4-3.6-2.4-5.7c0-2.1,0.9-4.2,2.4-5.7c1.5-1.5,3.6-2.4,5.7-2.4
		c2.1,0,4.2,0.9,5.7,2.4c1.5,1.5,2.4,3.6,2.4,5.7c0,2.1-0.9,4.2-2.4,5.7C119.1,124.4,117.1,125.3,114.9,125.3z"/>
	<path d="M71.7,117.2c0,1.5-1.2,2.7-2.7,2.7c-1.5,0-2.7-1.2-2.7-2.7c0-1.5,1.2-2.7,2.7-2.7C70.5,114.5,71.7,115.7,71.7,117.2"/>
</g>
<g>
</g>
<g>
</g>
<g>
</g>
<g>
</g>
<g>
</g>
</svg>
