<?xml version="1.0" encoding="utf-8"?>
<!-- Generator: Adobe Illustrator 17.1.0, SVG Export Plug-In . SVG Version: 6.00 Build 0)  -->
<!DOCTYPE svg PUBLIC "-//W3C//DTD SVG 1.1//EN" "http://www.w3.org/Graphics/SVG/1.1/DTD/svg11.dtd">
<svg version="1.1" id="Layer_1" xmlns="http://www.w3.org/2000/svg" xmlns:xlink="http://www.w3.org/1999/xlink" x="0px" y="0px"
	 viewBox="200 0 560 560" enable-background="new 200 0 560 560" xml:space="preserve">
<rect x="200" y="0.6" fill="none" width="560" height="560"/>
<g>
	<path d="M716.8,214.8C694.4,129,625.4,60,538.6,38.5s-181,6.5-240.7,73.7c-73.7,82.1-83,205.3-23.3,298.6
		c-4.7,33.6-8.4,67.2-13.1,100.8c-1.9,12.1,13.1,20.5,23.3,17.7c32.7-9.3,66.2-17.7,98.9-27.1c88.6,36.4,191.3,19.6,262.2-45.7
		C712.2,395.8,739.2,300.7,716.8,214.8L716.8,214.8z M651.5,394.9c-56,82.1-166.1,112.9-256.6,71.8H394c-3.7-1.9-8.4-2.8-14-1.9
		c-26.1,7.5-52.3,14-78.4,21.5c2.8-22.4,5.6-43.9,8.4-66.2c0.9-7.5,2.8-15.9-0.9-23.3c-2.8-4.7-6.5-9.3-9.3-14.9
		c-6.5-11.2-12.1-23.3-16.8-35.5c-14.9-42.9-15.9-90.5-1.9-133.4c24.3-75.6,93.3-132.5,171.7-141.8c81.2-11.2,162.4,28,204.3,96.1
		C700,237.2,697.2,326.8,651.5,394.9L651.5,394.9z"/>
	<path d="M609.5,307.2l-42-32.7c-13.1-10.3-30.8-8.4-42,2.8l-12.1,12.1c-9.3-5.6-17.7-12.1-26.1-19.6c-7.5-7.5-14-16.8-19.6-26.1
		l12.1-12.1c11.2-11.2,12.1-28.9,2.8-42L450,146.7c-6.5-9.3-16.8-14.9-28-14.9c-11.2-0.9-22.4,3.7-29.9,11.2l-36.4,36.4
		c-20.5,20.5-25.2,52.3-12.1,78.4c17.7,33.6,40.1,63.4,66.2,89.6c26.1,26.1,56.9,48.5,89.6,66.2c10.3,5.6,20.5,7.5,30.8,7.5
		c16.8,0,34.5-6.5,46.7-19.6l36.4-36.4c7.5-7.5,12.1-18.7,11.2-29.9C624.4,324,618.8,313.8,609.5,307.2z M587.1,338.9l-36.4,36.4
		c-9.3,9.3-23.3,11.2-34.5,5.6c-29.9-15.9-56.9-35.5-81.2-59.7c-24.3-24.3-43.9-51.3-59.7-81.2c-5.6-11.2-3.7-25.2,5.6-34.5
		l36.4-36.4h0.9c0.9,0,0.9,0,0.9,0.9l29.9,39.2l-12.1,11.2c-9.3,9.3-12.1,24.3-5.6,36.4c7.5,14.9,17.7,28,28.9,39.2
		c11.2,11.2,24.3,21.5,39.2,28.9c12.1,6.5,26.1,3.7,35.5-5.6l13.1-13.1l38.3,29.9c0,0,0.9,0,0.9,0.9V338.9z"/>
</g>
</svg>
