<?xml version="1.0" encoding="utf-8"?>
<!-- Generator: Adobe Illustrator 17.1.0, SVG Export Plug-In . SVG Version: 6.00 Build 0)  -->
<!DOCTYPE svg PUBLIC "-//W3C//DTD SVG 1.1//EN" "http://www.w3.org/Graphics/SVG/1.1/DTD/svg11.dtd">
<svg version="1.1" id="Layer_1" xmlns="http://www.w3.org/2000/svg" xmlns:xlink="http://www.w3.org/1999/xlink" x="0px" y="0px"
	 viewBox="0 0 138 138" enable-background="new 0 0 138 138" xml:space="preserve">
<g>
	<path d="M131.2,68.9c0-2.2-0.9-4.3-2.7-5.8l-9.2-7.7l4.1-11.2c0.8-2.1,0.5-4.4-0.5-6.4c-1.2-2-3-3.3-5.2-3.7L105.9,32l-2.1-11.8
		c-0.4-2.2-1.7-4.1-3.7-5.2c-2-1.2-4.2-1.3-6.4-0.5l-11.2,4.1l-7.7-9.2C71.9,6,66.1,6,63.2,9.4l-7.7,9.2l-11.2-4.1
		c-2.1-0.8-4.4-0.5-6.4,0.5c-2,1.2-3.3,3-3.7,5.2L32.1,32l-11.8,2.1c-2.2,0.4-4.1,1.7-5.2,3.7c-1.2,2-1.3,4.2-0.5,6.4l4.1,11.2
		l-9.2,7.7c-1.7,1.4-2.7,3.5-2.7,5.8c0,2.2,0.9,4.3,2.7,5.8l9.2,7.7l-4.1,11.2c-0.8,2.1-0.5,4.4,0.5,6.4c1.2,2,3,3.3,5.2,3.7
		l11.8,2.1l2.1,11.8c0.4,2.2,1.7,4.1,3.7,5.2c2,1.2,4.2,1.3,6.4,0.5l11.2-4.1l7.7,9.2c1.4,1.7,3.5,2.7,5.8,2.7
		c2.2,0,4.3-0.9,5.8-2.7l7.7-9.2l11.2,4.1c2.1,0.8,4.4,0.5,6.4-0.5c2-1.2,3.3-3,3.7-5.2l2.1-11.8l11.8-2.1c2.2-0.4,4.1-1.7,5.2-3.7
		c1.2-2,1.3-4.2,0.5-6.4l-4.1-11.2l9.2-7.7C130.3,73.3,131.2,71.3,131.2,68.9L131.2,68.9z M114.5,76.6c-2.4,2.1-3.3,5.4-2.2,8.4
		l4.1,11.2l-11.8,2.1c-3.1,0.5-5.5,3-6.1,6.1l-2.1,11.8l-11.1-4.1c-3-1-6.3-0.1-8.4,2.2l-7.7,9.2l-7.7-9.2c-1.4-1.7-3.7-2.6-5.8-2.6
		c-0.9,0-1.7,0.1-2.5,0.4l-11.2,4.1l-2.1-11.8c-0.5-3.1-3-5.5-6.1-6.1l-11.8-2.1L26,85c1-3,0.1-6.3-2.2-8.4l-9.2-7.7l9.2-7.7
		c2.4-2.1,3.3-5.4,2.2-8.4l-4.1-11.2l11.8-2.1c3.1-0.5,5.5-3,6.1-6.1l2.1-11.8l11.2,4.1c3,1,6.3,0.1,8.4-2.2l7.7-9.2l7.7,9.2
		c2.1,2.4,5.4,3.3,8.4,2.2l11.2-4.1l2.1,11.8c0.5,3.1,3,5.5,6.1,6.1l11.8,2.1l-4.3,11.4c-1,3-0.1,6.3,2.2,8.4l9.2,7.7L114.5,76.6z"
		/>
	<path d="M69.1,34.8c-18.8,0-34.3,15.3-34.3,34.3c0,18.8,15.3,34.3,34.3,34.3s34.3-15.4,34.3-34.3C103.4,50.1,88,34.8,69.1,34.8z
		 M69.1,95.6c-14.6,0-26.7-11.9-26.7-26.7c0-14.6,11.9-26.7,26.7-26.7c14.8,0,26.7,12,26.7,26.8C95.8,83.7,83.8,95.6,69.1,95.6z"/>
	<path d="M78,58.3L65.9,71.4l-5.6-6.1c-1.4-1.4-3.8-1.4-5.4-0.1c-1.6,1.4-1.6,3.8-0.3,5.4l8.4,9c0.7,0.8,1.7,1.2,2.7,1.2
		c1,0,2.1-0.4,2.7-1.2l15-16c1.4-1.6,1.3-3.9-0.3-5.4C81.8,56.7,79.5,56.9,78,58.3L78,58.3z"/>
</g>
<rect y="0" fill="none" width="138" height="138"/>
<g>
</g>
<g>
</g>
<g>
</g>
<g>
</g>
<g>
</g>
</svg>
