<?xml version="1.0" encoding="utf-8"?>
<!-- Generator: Adobe Illustrator 17.1.0, SVG Export Plug-In . SVG Version: 6.00 Build 0)  -->
<!DOCTYPE svg PUBLIC "-//W3C//DTD SVG 1.1//EN" "http://www.w3.org/Graphics/SVG/1.1/DTD/svg11.dtd">
<svg version="1.1" id="Layer_1" xmlns="http://www.w3.org/2000/svg" xmlns:xlink="http://www.w3.org/1999/xlink" x="0px" y="0px"
	 viewBox="200 0 560 560" enable-background="new 200 0 560 560" xml:space="preserve">
<rect x="200" fill="none" width="560" height="560"/>
<g>
	<path d="M649.2,69.5c-29.5-34.2-79.3-46.7-122.8-31.1c-6.2,1.6-10.9,7.8-12.4,14c-1.6,6.2,0,12.4,4.7,17.1l32.7,37.3
		c1.6,3.1,3.1,6.2,3.1,9.3c0,3.1-1.6,6.2-4.7,7.8c-4.7,4.7-12.4,3.1-17.1-1.6l-34.2-38.9c-4.7-4.7-10.9-7.8-17.1-6.2
		c-6.2,0-12.4,4.7-15.6,9.3c-23.3,40.4-17.1,88.6,12.4,122.8c9.3,9.3,18.7,18.7,31.1,24.9v241c0,29.5,24.9,52.9,54.4,52.9
		c29.5,0,54.4-23.3,54.4-52.9l0-239.5c6.2-3.1,12.4-7.8,18.7-12.4c23.3-18.7,37.3-45.1,38.9-74.6C678.7,119.3,669.4,91.3,649.2,69.5
		L649.2,69.5z M613.4,193.9c-6.2,4.7-12.4,9.3-20.2,10.9c-7.8,3.1-12.4,9.3-12.4,18.7v253.5c0,7.8-6.2,14-15.6,14
		c-9.3,0-15.6-6.2-15.6-14l0-253.5c0-7.8-4.7-15.6-12.4-18.7c-10.9-4.7-20.2-10.9-28-20.2c-12.4-14-18.7-31.1-17.1-49.8l10.9,12.4
		c18.7,20.2,49.8,23.3,71.5,6.2c10.9-9.3,17.1-21.8,18.7-35.8c1.6-14-3.1-28-12.4-37.3l-7.8-9.3c18.7,1.6,35.8,10.9,48.2,24.9
		c12.4,14,18.7,32.7,17.1,49.8C636.8,164.4,627.4,181.5,613.4,193.9L613.4,193.9z"/>
	<path d="M344.4,41.5c-34.2,0-60.6,26.4-60.6,60.6v174.2c0,10.9,9.3,20.2,20.2,20.2h20.2v206.8c0,10.9,9.3,20.2,20.2,20.2
		s20.2-9.3,20.2-20.2l0-208.4h21.8c10.9,0,20.2-9.3,20.2-20.2V102.2C403.5,67.9,377.1,41.5,344.4,41.5L344.4,41.5z M364.6,256.1
		h-43.5V102.1c0-10.9,9.3-21.8,21.8-21.8h1.6c10.9,0,21.8,9.3,21.8,21.8l0,153.9H364.6z"/>
</g>
</svg>
