<?xml version="1.0" encoding="utf-8"?>
<!-- Generator: Adobe Illustrator 17.1.0, SVG Export Plug-In . SVG Version: 6.00 Build 0)  -->
<!DOCTYPE svg PUBLIC "-//W3C//DTD SVG 1.1//EN" "http://www.w3.org/Graphics/SVG/1.1/DTD/svg11.dtd">
<svg version="1.1" id="Layer_1" xmlns="http://www.w3.org/2000/svg" xmlns:xlink="http://www.w3.org/1999/xlink" x="0px" y="0px"
	 viewBox="200 0 560 560" enable-background="new 200 0 560 560" xml:space="preserve">
<rect x="200" fill="none" width="560" height="560"/>
<g>
	<path d="M730.1,243.2h-15.2c-234.9,0-223.2,226.8-216.9,277c0.9,6.3,1.8,9.9,1.8,9.9c4.5,0,9.9,0.9,14.3,0.9h4.5h6.3h5.4
		C757,528.3,730.1,243.2,730.1,243.2L730.1,243.2z M641.3,449.4c-24.2,26.9-55.6,41.2-96.8,44.8c35.9-75.3,93.2-144.3,95.9-147
		c-41.2,13.4-79.8,61.9-108.5,109.4c2.7-38.5,12.5-89.6,44.8-125.5c26.9-30.5,66.3-47.5,118.3-51.1
		C694.2,323,685.2,400.1,641.3,449.4L641.3,449.4z"/>
	<path d="M229,208.3c0,0-4.5,263.5,202.6,269.8h8.1h2.7c6.3,0,12.6,0,19.7-0.9c0,0,0.9-2.7,0.9-8.1
		C466.5,425.2,468.3,224.4,229,208.3L229,208.3z M414.5,440.5c-111.2-14.3-139.8-129.1-147-190.9c49.3,9,87.9,29.6,114.7,60.1
		c24.2,27.8,35.9,61.9,41.2,90.5c-26.9-41.2-61-78.9-95.9-90.5C329.4,313.2,378.7,372.3,414.5,440.5L414.5,440.5z"/>
	<path d="M480.9,29c0,0-169.4,116.5-16.1,269.8c5.4,4.5,9.9,9.9,16.1,15.2c0,0,4.5-3.6,12.5-10.8C530.2,266.6,628.8,148.2,480.9,29
		L480.9,29z M474.6,153.6c0,0,1.8,43.9-3.6,98.6c-25.1-31.4-36.8-61.9-34.1-91.4c2.7-35.9,26-66.3,43.9-83.4
		c27.8,27.8,42.1,55.6,43,84.3c1.8,31.4-12.5,60.1-27.8,82.5C495.2,209.2,489.8,176,474.6,153.6z"/>
</g>
</svg>
